# xmcd
#
# Track frame offsets: 
#        150
#        17069
#        45131
#        61807
#        82976
#        108909
#        127538
#        150996
#        166358
#        189238
#        215822
#        242639
#        260110
#        274345
#        299768
#        314564
#
# Disc length: 4437 seconds
#
# Revision: 2
# Processed by: cddbd v1.5.2PL0 Copyright (c) Steve Scherf et al.
# Submitted via: ExactAudioCopy v0.99pb5
#
DISCID=d9115310
DTITLE=Quatro, Scott and Powell - Quatro, Scott and Powell
DYEAR=2017
DGENRE=Hard Rock
TTITLE0=Slow Down
TTITLE1=Long Way From Home
TTITLE2=Tobacco Road
TTITLE3=If Only
TTITLE4=Bright Lights Big City
TTITLE5=Pain (Band version)
TTITLE6=Just Like A Woman
TTITLE7=Mend A Broken Heart
TTITLE8=The Price Of Love
TTITLE9=Broken Pieces Suite
TTITLE10=I Walk On Gilded Splinters
TTITLE11=Late Nights Early Flights
TTITLE12=Little Sister
TTITLE13=Fever
TTITLE14=Tossin and Turnin'
TTITLE15=Pain (Orchestral)
EXTD=
EXTT0=
EXTT1=
EXTT2=
EXTT3=
EXTT4=
EXTT5=
EXTT6=
EXTT7=
EXTT8=
EXTT9=
EXTT10=
EXTT11=
EXTT12=
EXTT13=
EXTT14=
EXTT15=
PLAYORDER=
